<svg width="302" height="51" viewBox="0 0 302 51" fill="none" xmlns="http://www.w3.org/2000/svg">
<path fill-rule="evenodd" clip-rule="evenodd" d="M11 0C4.92487 0 0 4.92487 0 11V40C0 46.0751 4.92487 51 11 51H43C49.0751 51 54 46.0751 54 40V11C54 4.92487 49.0751 0 43 0H11ZM32.732 20.496H35.72V15.96L31.976 12H23.624L19.88 15.96V23.016L23.552 26.868H31.04L32.768 28.632V33.996L30.932 35.904H24.704L22.508 33.672V30.504H19.52V35.04L23.264 39H32.336L36.08 35.04V27.588L32.444 23.772H24.956L23.192 21.972V17.004L25.064 15.096H30.572L32.732 17.328V20.496Z" fill="#E77200"/>
<path fill-rule="evenodd" clip-rule="evenodd" d="M73 0C66.9249 0 62 4.92487 62 11V40C62 46.0751 66.9249 51 73 51H105C111.075 51 116 46.0751 116 40V11C116 4.92487 111.075 0 105 0H73ZM94.48 32.12V35H102.112V32.12H100.168L94.084 14.48H95.632V11.6H86.02V14.48H87.532L81.448 32.12H79.54V35H87.172V32.12H84.76L86.308 27.656H95.308L96.856 32.12H94.48ZM87.28 24.776L90.808 14.588L94.336 24.776H87.28Z" fill="#E77200"/>
<path fill-rule="evenodd" clip-rule="evenodd" d="M135 0C128.925 0 124 4.92487 124 11V40C124 46.0751 128.925 51 135 51H167C173.075 51 178 46.0751 178 40V11C178 4.92487 173.075 0 167 0H135ZM146.184 38H156.696V35.12H153.096V17.48H158.064V21.656H160.8V14.6H142.08V21.656H144.816V17.48H149.784V35.12H146.184V38Z" fill="#E77200"/>
<path fill-rule="evenodd" clip-rule="evenodd" d="M197 0C190.925 0 186 4.92487 186 11V40C186 46.0751 190.925 51 197 51H229C235.075 51 240 46.0751 240 40V11C240 4.92487 235.075 0 229 0H197ZM214.952 28.02H219.92V33.564L217.616 35.904H211.028L209.192 33.996V17.004L211.064 15.096H217.652L219.92 17.436V20.496H222.8V15.96L219.056 12H209.624L205.88 15.96V35.04L209.624 39H219.056L222.8 35.04V25.14H214.952V28.02Z" fill="#E77200"/>
<path fill-rule="evenodd" clip-rule="evenodd" d="M259 0C252.925 0 248 4.92487 248 11V40C248 46.0751 252.925 51 259 51H291C297.075 51 302 46.0751 302 40V11C302 4.92487 297.075 0 291 0H259ZM285.556 39H266.8V41.88H285.556V39Z" fill="#E77200"/>
</svg>
